<?xml version="1.0" encoding="iso-8859-1"?>
<!-- Generator: Adobe Illustrator 19.0.0, SVG Export Plug-In . SVG Version: 6.00 Build 0)  -->
<svg version="1.1" id="Layer_1" xmlns="http://www.w3.org/2000/svg" xmlns:xlink="http://www.w3.org/1999/xlink" x="0px" y="0px"
	 viewBox="0 0 512.03 512.03" style="enable-background:new 0 0 512.03 512.03;" xml:space="preserve">
<g transform="translate(0 -1)">
	<path style="fill:#9B2118;" d="M30.494,211.895c-0.477,0-0.963-0.035-1.458-0.121C11.941,208.884,0,195.416,0,179.032
		c0-4.79,3.888-8.678,8.678-8.678c4.799,0,8.678,3.888,8.678,8.678c0,9.719,7.854,14.492,14.579,15.629
		c4.721,0.798,7.906,5.276,7.107,10.006C38.322,208.901,34.651,211.895,30.494,211.895"/>
	<path style="fill:#C03A2B;" d="M30.579,191.112c0,0-18.701,99.909-21.895,109.49c0,0,450.265,34.217,492.7-16.419
		c0,0,17.79-42.435-109.49-38.322l-186.134-87.595C205.761,158.266,143.548,256.908,30.579,191.112"/>
	<path style="fill:#DEDEE1;" d="M95.46,271.09c-4.782,0-8.661-3.879-8.678-8.661v-0.026c-0.364-2.786-10.223-8.678-17.356-8.678
		c-4.79,0-8.678-3.888-8.678-8.678c0-4.799,3.888-8.678,8.678-8.678c8.131,0,18.701,3.593,26.034,9.728
		c7.333-6.135,17.903-9.728,26.034-9.728c4.79,0,8.678,3.879,8.678,8.678c0,4.79-3.888,8.678-8.678,8.678
		c-7.125,0-16.974,5.884-17.356,8.687c0,0.139,0,0.269-0.009,0.408C103.921,267.428,100.12,271.09,95.46,271.09"/>
	<path style="fill:#ACAAAF;" d="M501.384,273.23h-0.165c2.135,6.179,0.165,10.952,0.165,10.952
		c-42.435,50.636-492.7,16.419-492.7,16.419v51.764c0,0,209.313,4.582,344.888,8.678c82.501,2.491,125.353-16.41,146.293-31.484
		c11.49-8.27,14.857-23.396,10.032-36.447L501.384,273.23z"/>
	<g>
		<path style="fill:#DEDEE1;" d="M381.833,309.756c60.277-3.298,107.208-10.839,119.539-25.574c0,0,17.798-42.427-109.481-38.322
			l-10.058,63.115V309.756z"/>
		<path style="fill:#DEDEE1;" d="M216.943,213.518c-1.519,0-3.063-0.399-4.46-1.241c-4.105-2.465-5.441-7.793-2.968-11.906
			l26.034-43.39c2.456-4.113,7.793-5.45,11.906-2.968c4.105,2.465,5.441,7.793,2.968,11.906l-26.034,43.39
			C222.766,212.017,219.894,213.518,216.943,213.518"/>
		<path style="fill:#DEDEE1;" d="M251.655,230.874c-1.519,0-3.063-0.399-4.46-1.241c-4.105-2.465-5.441-7.793-2.968-11.906
			l26.034-43.39c2.456-4.105,7.784-5.45,11.906-2.968c4.105,2.465,5.441,7.793,2.968,11.906l-26.034,43.39
			C257.478,229.373,254.605,230.874,251.655,230.874"/>
		<path style="fill:#DEDEE1;" d="M286.367,248.23c-1.519,0-3.063-0.399-4.46-1.241c-4.105-2.465-5.441-7.793-2.968-11.906
			l26.034-43.39c2.456-4.105,7.793-5.441,11.906-2.968c4.105,2.465,5.441,7.793,2.968,11.906l-26.034,43.39
			C292.19,246.729,289.317,248.23,286.367,248.23"/>
		<path style="fill:#DEDEE1;" d="M321.079,265.586c-1.519,0-3.063-0.399-4.46-1.241c-4.105-2.465-5.441-7.793-2.968-11.906
			l26.034-43.39c2.465-4.113,7.784-5.441,11.906-2.968c4.105,2.465,5.441,7.793,2.968,11.906l-26.034,43.39
			C326.902,264.085,324.029,265.586,321.079,265.586"/>
	</g>
</g>
<g>
</g>
<g>
</g>
<g>
</g>
<g>
</g>
<g>
</g>
<g>
</g>
<g>
</g>
<g>
</g>
<g>
</g>
<g>
</g>
<g>
</g>
<g>
</g>
<g>
</g>
<g>
</g>
<g>
</g>
</svg>
